<?xml version="1.0" encoding="utf-8"?>
<!-- Generator: Adobe Illustrator 28.1.0, SVG Export Plug-In . SVG Version: 6.00 Build 0)  -->
<svg version="1.1" id="Layer_1" xmlns="http://www.w3.org/2000/svg" xmlns:xlink="http://www.w3.org/1999/xlink" x="0px" y="0px"
	 viewBox="0 0 512 512" style="enable-background:new 0 0 512 512;" xml:space="preserve">
<style type="text/css">
	.st0{fill:#B77084;}
	.st1{fill:#44242E;}
</style>
<ellipse class="st0" cx="255.9754" cy="256.5347" rx="255.9754" ry="253.8915"/>
<path class="st1" d="M314.3304,424.4273c0,19.3421-23.9103-10.3524-59.4317-10.3524s-69.2027,29.6945-69.2027,10.3524
	s28.7958-35.022,64.3172-35.022S314.3304,405.0852,314.3304,424.4273z"/>
<path class="st1" d="M237.6784,219.141c0,19.3421-23.9103-10.3524-59.4317-10.3524s-69.2026,29.6945-69.2026,10.3524
	s28.7958-35.022,64.3172-35.022S237.6784,199.7988,237.6784,219.141z"/>
<path class="st1" d="M402.4361,219.141c0,19.3421-23.9103-10.3524-59.4317-10.3524s-69.2026,29.6945-69.2026,10.3524
	s28.7958-35.022,64.3172-35.022S402.4361,199.7988,402.4361,219.141z"/>
</svg>
